<?xml version="1.0" encoding="UTF-8"?>
<svg xmlns="http://www.w3.org/2000/svg"
     width="900"
     height="90"
     viewBox="0 0 900 90"
     fill="none">

  <defs>

    <!-- Porch & Paw Paw -->
    <g id="paw">

      <!-- Toes -->
      <ellipse cx="20" cy="14" rx="7" ry="10"/>
      <ellipse cx="40" cy="8" rx="8" ry="11"/>
      <ellipse cx="60" cy="14" rx="7" ry="10"/>
      <ellipse cx="74" cy="31" rx="6.5" ry="9"/>

      <!-- Pad -->
      <path d="
      M40 30
      C23 30 14 42 16 57
      C18 70 31 72 40 66
      C49 72 62 70 64 57
      C66 42 57 30 40 30
      Z"/>

    </g>

  </defs>

  <!-- Connector Lines -->

  <line x1="110" y1="40" x2="170" y2="40"
        stroke="#D8CEC2"
        stroke-width="3"
        stroke-linecap="round"/>

  <line x1="250" y1="40" x2="310" y2="40"
        stroke="#D8CEC2"
        stroke-width="3"
        stroke-linecap="round"/>

  <line x1="390" y1="40" x2="450" y2="40"
        stroke="#D8CEC2"
        stroke-width="3"
        stroke-linecap="round"/>

  <line x1="530" y1="40" x2="590" y2="40"
        stroke="#D8CEC2"
        stroke-width="3"
        stroke-linecap="round"/>

  <line x1="670" y1="40" x2="730" y2="40"
        stroke="#D8CEC2"
        stroke-width="3"
        stroke-linecap="round"/>

  <!-- STEP 1 -->

  <use href="#paw"
       x="20"
       y="0"
       fill="#C86A46"/>

  <!-- STEP 2 -->

  <use href="#paw"
       x="160"
       y="0"
       fill="none"
       stroke="#D8CEC2"
       stroke-width="2.5"/>

  <!-- STEP 3 -->

  <use href="#paw"
       x="300"
       y="0"
       fill="none"
       stroke="#D8CEC2"
       stroke-width="2.5"/>

  <!-- STEP 4 -->

  <use href="#paw"
       x="440"
       y="0"
       fill="none"
       stroke="#D8CEC2"
       stroke-width="2.5"/>

  <!-- STEP 5 -->

  <use href="#paw"
       x="580"
       y="0"
       fill="none"
       stroke="#D8CEC2"
       stroke-width="2.5"/>

  <!-- STEP 6 -->

  <use href="#paw"
       x="720"
       y="0"
       fill="none"
       stroke="#D8CEC2"
       stroke-width="2.5"/>

</svg>